<mxfile host="app.diagrams.net" agent="Mozilla/5.0 (Windows NT 10.0; Win64; x64) AppleWebKit/537.36 (KHTML, like Gecko) Chrome/131.0.0.0 Safari/537.36" version="26.0.5">
  <diagram name="第 1 页" id="pDGJuI-7vzYrcwJg5P6v">
    <mxGraphModel dx="327" dy="532" grid="1" gridSize="10" guides="1" tooltips="1" connect="1" arrows="1" fold="1" page="1" pageScale="1" pageWidth="827" pageHeight="1169" math="0" shadow="0">
      <root>
        <mxCell id="0" />
        <mxCell id="1" parent="0" />
        <mxCell id="nku8yffjrh3vuvWNtaAY-4" value="" style="edgeStyle=orthogonalEdgeStyle;rounded=0;orthogonalLoop=1;jettySize=auto;html=1;" edge="1" parent="1" source="nku8yffjrh3vuvWNtaAY-1" target="nku8yffjrh3vuvWNtaAY-3">
          <mxGeometry relative="1" as="geometry" />
        </mxCell>
        <mxCell id="nku8yffjrh3vuvWNtaAY-1" value="HTTPAPIServer::HandleInfer" style="rounded=0;whiteSpace=wrap;html=1;" vertex="1" parent="1">
          <mxGeometry x="1560" y="120" width="230" height="60" as="geometry" />
        </mxCell>
        <mxCell id="nku8yffjrh3vuvWNtaAY-2" value="&lt;span style=&quot;color: rgb(44, 44, 54); font-family: -apple-system, BlinkMacSystemFont, &amp;quot;Segoe UI&amp;quot;, &amp;quot;Noto Sans&amp;quot;, Helvetica, Arial, sans-serif, &amp;quot;Apple Color Emoji&amp;quot;, &amp;quot;Segoe UI Emoji&amp;quot;; letter-spacing: 0.08px; text-align: start; white-space-collapse: preserve; background-color: rgb(255, 255, 255);&quot;&gt;&lt;font style=&quot;font-size: 12px;&quot;&gt;http infrer接口&lt;/font&gt;&lt;/span&gt;" style="text;strokeColor=none;align=center;fillColor=none;html=1;verticalAlign=middle;whiteSpace=wrap;rounded=0;" vertex="1" parent="1">
          <mxGeometry x="1465" y="130" width="90" height="30" as="geometry" />
        </mxCell>
        <mxCell id="nku8yffjrh3vuvWNtaAY-6" value="" style="edgeStyle=orthogonalEdgeStyle;rounded=0;orthogonalLoop=1;jettySize=auto;html=1;" edge="1" parent="1" source="nku8yffjrh3vuvWNtaAY-3" target="nku8yffjrh3vuvWNtaAY-5">
          <mxGeometry relative="1" as="geometry" />
        </mxCell>
        <mxCell id="nku8yffjrh3vuvWNtaAY-10" style="edgeStyle=orthogonalEdgeStyle;rounded=0;orthogonalLoop=1;jettySize=auto;html=1;exitX=1;exitY=0.5;exitDx=0;exitDy=0;entryX=0;entryY=0.5;entryDx=0;entryDy=0;" edge="1" parent="1" source="nku8yffjrh3vuvWNtaAY-3" target="nku8yffjrh3vuvWNtaAY-9">
          <mxGeometry relative="1" as="geometry" />
        </mxCell>
        <mxCell id="nku8yffjrh3vuvWNtaAY-12" style="edgeStyle=orthogonalEdgeStyle;rounded=0;orthogonalLoop=1;jettySize=auto;html=1;" edge="1" parent="1" source="nku8yffjrh3vuvWNtaAY-3" target="nku8yffjrh3vuvWNtaAY-11">
          <mxGeometry relative="1" as="geometry" />
        </mxCell>
        <mxCell id="nku8yffjrh3vuvWNtaAY-3" value="&lt;div&gt;core/http_server.cc&lt;/div&gt;&lt;div&gt;TRITONSERVER_InferenceRequestNew&lt;/div&gt;" style="rounded=0;whiteSpace=wrap;html=1;" vertex="1" parent="1">
          <mxGeometry x="1560" y="220" width="230" height="60" as="geometry" />
        </mxCell>
        <mxCell id="nku8yffjrh3vuvWNtaAY-8" value="" style="edgeStyle=orthogonalEdgeStyle;rounded=0;orthogonalLoop=1;jettySize=auto;html=1;" edge="1" parent="1" source="nku8yffjrh3vuvWNtaAY-5" target="nku8yffjrh3vuvWNtaAY-7">
          <mxGeometry relative="1" as="geometry" />
        </mxCell>
        <mxCell id="nku8yffjrh3vuvWNtaAY-5" value="&lt;div&gt;ModelRepositoryManager::GetModel&lt;/div&gt;" style="rounded=0;whiteSpace=wrap;html=1;" vertex="1" parent="1">
          <mxGeometry x="1850" y="220" width="230" height="60" as="geometry" />
        </mxCell>
        <mxCell id="nku8yffjrh3vuvWNtaAY-7" value="&lt;div&gt;ModelLifeCycle::GetModel&lt;/div&gt;" style="rounded=0;whiteSpace=wrap;html=1;" vertex="1" parent="1">
          <mxGeometry x="2120" y="220" width="230" height="60" as="geometry" />
        </mxCell>
        <mxCell id="nku8yffjrh3vuvWNtaAY-9" value="&lt;div&gt;ModelRepositoryManager::GetModel&lt;/div&gt;" style="rounded=0;whiteSpace=wrap;html=1;" vertex="1" parent="1">
          <mxGeometry x="1850" y="320" width="230" height="60" as="geometry" />
        </mxCell>
        <mxCell id="nku8yffjrh3vuvWNtaAY-14" style="edgeStyle=orthogonalEdgeStyle;rounded=0;orthogonalLoop=1;jettySize=auto;html=1;exitX=1;exitY=0.5;exitDx=0;exitDy=0;" edge="1" parent="1" source="nku8yffjrh3vuvWNtaAY-11" target="nku8yffjrh3vuvWNtaAY-13">
          <mxGeometry relative="1" as="geometry" />
        </mxCell>
        <mxCell id="nku8yffjrh3vuvWNtaAY-16" style="edgeStyle=orthogonalEdgeStyle;rounded=0;orthogonalLoop=1;jettySize=auto;html=1;exitX=1;exitY=0.5;exitDx=0;exitDy=0;entryX=0;entryY=0.5;entryDx=0;entryDy=0;" edge="1" parent="1" source="nku8yffjrh3vuvWNtaAY-11" target="nku8yffjrh3vuvWNtaAY-15">
          <mxGeometry relative="1" as="geometry" />
        </mxCell>
        <mxCell id="nku8yffjrh3vuvWNtaAY-18" style="edgeStyle=orthogonalEdgeStyle;rounded=0;orthogonalLoop=1;jettySize=auto;html=1;exitX=0.5;exitY=1;exitDx=0;exitDy=0;entryX=0.5;entryY=0;entryDx=0;entryDy=0;" edge="1" parent="1" source="nku8yffjrh3vuvWNtaAY-11" target="nku8yffjrh3vuvWNtaAY-17">
          <mxGeometry relative="1" as="geometry" />
        </mxCell>
        <mxCell id="nku8yffjrh3vuvWNtaAY-11" value="&lt;div&gt;core/http_server.cc&lt;/div&gt;&lt;div&gt;EVRequestToTritonRequest&lt;/div&gt;" style="rounded=0;whiteSpace=wrap;html=1;" vertex="1" parent="1">
          <mxGeometry x="1560" y="410" width="230" height="60" as="geometry" />
        </mxCell>
        <mxCell id="nku8yffjrh3vuvWNtaAY-13" value="&lt;div&gt;core/tritonserver.cc&lt;/div&gt;&lt;div&gt;EVBufferToInput&lt;/div&gt;" style="rounded=0;whiteSpace=wrap;html=1;" vertex="1" parent="1">
          <mxGeometry x="1850" y="410" width="230" height="60" as="geometry" />
        </mxCell>
        <mxCell id="nku8yffjrh3vuvWNtaAY-15" value="&lt;div&gt;core/tritonserver.cc&lt;/div&gt;&lt;div&gt;EVBufferToRawInput&lt;/div&gt;" style="rounded=0;whiteSpace=wrap;html=1;" vertex="1" parent="1">
          <mxGeometry x="1850" y="500" width="230" height="60" as="geometry" />
        </mxCell>
        <mxCell id="nku8yffjrh3vuvWNtaAY-20" value="" style="edgeStyle=orthogonalEdgeStyle;rounded=0;orthogonalLoop=1;jettySize=auto;html=1;" edge="1" parent="1" source="nku8yffjrh3vuvWNtaAY-17" target="nku8yffjrh3vuvWNtaAY-19">
          <mxGeometry relative="1" as="geometry" />
        </mxCell>
        <mxCell id="nku8yffjrh3vuvWNtaAY-17" value="&lt;div&gt;core/http_server.cc&lt;/div&gt;&lt;div&gt;TRITONSERVER_InferenceRequestId&lt;/div&gt;" style="rounded=0;whiteSpace=wrap;html=1;" vertex="1" parent="1">
          <mxGeometry x="1560" y="600" width="230" height="60" as="geometry" />
        </mxCell>
        <mxCell id="nku8yffjrh3vuvWNtaAY-22" value="" style="edgeStyle=orthogonalEdgeStyle;rounded=0;orthogonalLoop=1;jettySize=auto;html=1;" edge="1" parent="1" source="nku8yffjrh3vuvWNtaAY-19" target="nku8yffjrh3vuvWNtaAY-21">
          <mxGeometry relative="1" as="geometry" />
        </mxCell>
        <mxCell id="nku8yffjrh3vuvWNtaAY-19" value="&lt;div&gt;core/http_server.cc&lt;/div&gt;&lt;div&gt;ForwardHeaders&lt;/div&gt;" style="rounded=0;whiteSpace=wrap;html=1;" vertex="1" parent="1">
          <mxGeometry x="1560" y="700" width="230" height="60" as="geometry" />
        </mxCell>
        <mxCell id="nku8yffjrh3vuvWNtaAY-24" value="" style="edgeStyle=orthogonalEdgeStyle;rounded=0;orthogonalLoop=1;jettySize=auto;html=1;" edge="1" parent="1" source="nku8yffjrh3vuvWNtaAY-21" target="nku8yffjrh3vuvWNtaAY-23">
          <mxGeometry relative="1" as="geometry" />
        </mxCell>
        <mxCell id="nku8yffjrh3vuvWNtaAY-21" value="&lt;div&gt;core/http_server.cc&lt;/div&gt;&lt;div&gt;TRITONSERVER_InferenceRequestSetReleaseCallback&lt;/div&gt;" style="rounded=0;whiteSpace=wrap;html=1;" vertex="1" parent="1">
          <mxGeometry x="1490" y="800" width="370" height="60" as="geometry" />
        </mxCell>
        <mxCell id="nku8yffjrh3vuvWNtaAY-23" value="&lt;div&gt;core/http_server.cc&lt;/div&gt;&lt;div&gt;TRITONSERVER_InferenceRequestSetResponseCallback&lt;/div&gt;" style="rounded=0;whiteSpace=wrap;html=1;" vertex="1" parent="1">
          <mxGeometry x="1490" y="900" width="370" height="60" as="geometry" />
        </mxCell>
      </root>
    </mxGraphModel>
  </diagram>
</mxfile>
